<svg width="109" height="109"
  xmlns="http://www.w3.org/2000/svg">
  <g fill="none" fill-rule="evenodd">
    <path d="M76.603 61.7 54.417 83.888 32.493 61.72 17.565 76.648c2.464 2.465 27.297 27.663 29.841 29.405 3.394 2.424 8.35 2.654 12.222.979 1.229-.532 2.269-1.264 3.248-2.18.542-.508 1.064-1.048 1.589-1.55 7.302-7.02 22.945-22.929 26.697-26.44L76.603 61.7z" fill="white"/>
    <path d="m10.44 69.524 21.885-21.492.004.003 7.085 7.078h.002l14.849 14.83 15.53-15.05a30.427 30.427 0 0 0-.296-.289h.007a258.383 258.383 0 0 0-2.192-2.153l-.361-.355c-.833-.81-1.677-1.619-2.523-2.428l-.322-.308c-.927-.884-1.86-1.767-2.798-2.65l-.065-.06c-1.95-1.835-3.91-3.669-5.859-5.503-2.896-2.728-5.76-5.457-8.504-8.201l1.942-1.908 5.748-5.646L98.299 69.24l6.14-6.001c1.143-1.119 2.123-2.082 2.882-3.52 1.905-3.615 1.86-7.95-.014-11.08-.594-.996-1.384-1.752-2.198-2.563-14.046-14.04-28.039-27.9-42.413-42.166C58.4-.354 50.56-.39 46.174 3.938c-8.681 8.586-33.61 33.865-41.796 42.213-1.102 1.124-2.04 2.264-2.73 3.69-1.302 2.684-1.636 5.603-.624 8.58.68 1.996 1.812 3.5 3.298 4.986l6.118 6.117" fill="white"/>
  </g>
</svg>
